<svg width="187" height="282" viewBox="0 0 187 282" fill="none" xmlns="http://www.w3.org/2000/svg">
<path d="M98.0935 252.104C93.6698 252.523 89.2461 253.411 84.8869 253.201C81.2866 253.04 78.0415 253.508 74.8448 254.913C69.7429 257.157 64.6411 259.449 59.5716 261.774C59.055 262 58.6513 262.469 58.167 262.872C64.8349 267.57 91.1673 260.386 98.1097 252.104H98.0935Z" fill="black"/>
<path d="M39.4711 278.274C35.1281 277.37 32.5449 275.449 28.4279 273.948C25.0375 272.72 22.2767 272.607 18.8055 273.011C13.2678 273.641 10.8784 274.706 5.34063 275.417C4.7917 275.481 3.53239 275.853 2.95117 276.079C7.93997 282.537 30.3976 284.135 39.4711 278.274Z" fill="black"/>
<path d="M121.455 235.071C113.738 233.15 95.9302 239.769 89.4561 246.97C98.7879 249.908 116.676 243.256 121.455 235.071Z" fill="black"/>
<path d="M66.4334 122.96C65.271 111.222 58.587 101.858 53.6143 91.4448C50.1593 100.551 56.7787 116.55 66.4334 122.96Z" fill="black"/>
<path d="M69.0488 111.207C72.633 121.782 77.638 130.742 86.3885 137.361C86.5823 127.142 78.7681 115.065 69.0488 111.207Z" fill="black"/>
<path d="M116.192 228.177C126.993 229 138.489 221.202 141.879 210.756C132.644 215.6 122.473 218.813 116.192 228.177Z" fill="black"/>
<path d="M32.0122 270.622C41.2471 276.273 55.0349 274.578 62.8168 266.828C52.3872 266.925 41.8606 265.149 32.0122 270.622Z" fill="black"/>
<path d="M36.2745 31.5957C42.5388 38.8125 50.7081 39.9911 59.5879 39.6844C67.7088 39.4099 75.9266 39.2484 83.547 43.0102C83.6762 43.0748 83.9183 42.9456 84.5641 42.8003C81.5289 39.1839 77.7025 37.4563 73.4725 37.0527C69.3233 36.6491 65.0933 36.972 60.9117 36.972C72.1809 29.287 83.5793 32.4514 95.4943 36.5845C92.5559 32.6774 89.0686 30.9661 85 30.514C78.3322 29.7713 71.632 29.1094 64.9318 28.6089C55.923 27.9308 47.8989 24.8956 40.8274 19.2771C36.549 15.8705 33.7075 11.4952 32.206 6.24811C32.0122 5.57002 32.0607 4.84349 31.9961 4.13311C32.1898 3.98781 32.3836 3.8425 32.5935 3.6972C40.9888 14.9502 52.2419 20.5526 66.4495 21.489C53.5981 9.76771 49.8524 4.47216 51.2893 0C61.057 10.4619 70.5987 21.2306 87.0182 21.3598C84.9839 16.7585 81.8195 12.8353 82.5299 7.63657C83.7084 8.37924 84.5803 9.28336 85.3714 10.2521C90.2149 16.1611 95.9786 20.9077 102.824 24.3466C108.588 27.2366 114.545 28.06 120.906 26.5423C123.845 25.8481 126.993 25.2669 129.964 25.5575C133.015 25.8481 136.26 26.7522 138.811 28.3506C140.103 29.174 139.99 32.1446 140.652 34.0982C140.926 34.9054 141.394 35.8903 142.073 36.2616C145.463 38.0699 149.063 39.0708 152.922 37.8438C154.569 37.3272 156.151 36.5522 157.83 36.197C162.238 35.2283 164.902 37.4725 165.079 41.9285C165.224 45.4481 165.676 48.9516 165.919 52.455C165.999 53.6336 165.822 54.8445 165.757 56.0392C165.402 56.1845 165.031 56.3298 164.675 56.4751C164.062 55.4903 163.465 54.5054 162.657 53.1815C160.946 57.8313 159.315 61.7545 154.876 63.3852V52.5358C148.999 54.9736 144.075 53.2138 139.037 51.89C136.212 51.1473 133.144 50.4208 130.319 50.7921C127.348 51.1796 124.361 52.5358 121.714 54.0695C119.357 55.4257 119.534 57.7344 121.229 59.8494C124.216 63.5951 129.818 65.3387 134.258 63.5628C139.941 61.3025 145.156 61.8191 150.161 65.3387C153.665 67.7928 157.184 70.2468 160.881 72.3779C167.84 76.398 175.896 74.283 179.771 67.2115C181.563 63.9503 182.483 60.2208 183.775 56.7012C184.098 55.797 184.372 54.8929 184.679 53.9727C184.954 54.0372 185.212 54.1018 185.486 54.1664C186.487 59.9947 186.423 65.7746 182.451 70.6989C175.299 79.5624 165.063 81.0155 155.537 74.6705C152.664 72.7493 150.032 70.489 147.174 68.5354C142.686 65.484 139.07 65.6293 134.549 69.0682C138.149 71.3447 138.779 77.3506 144.882 76.059C145.366 79.1911 144.236 81.5644 142.008 83.4534C138.811 86.1335 135.582 88.7651 132.321 91.3644C131.255 92.2201 130.045 92.882 128.914 93.6409C128.64 93.4471 128.365 93.2695 128.091 93.0758C128.963 90.7509 129.835 88.4099 130.836 85.7298C128.123 86.7954 125.782 87.6995 123.441 88.6198C124.216 86.6824 125.362 85.3746 126.267 83.9216C128.543 80.289 128.301 76.8824 125.685 74.4768C122.828 71.829 119.615 71.829 116.015 74.396C113.367 76.285 110.784 78.3031 107.974 79.9015C104.471 81.8873 100.612 82.0811 96.6083 81.0962C100.435 78.3354 105.165 76.8501 107.393 72.1196C99.7727 76.6079 91.6356 78.2386 83.3533 75.4293C75.1193 72.6362 69.1457 66.8725 65.5938 58.8162C69.0165 61.3509 72.1809 64.1924 75.3131 67.0501C80.9961 72.2488 88.778 73.0237 95.3005 68.9713C96.1401 68.4547 96.8666 67.7605 97.6416 67.147C90.4248 69.0198 83.7569 69.3427 77.5895 65.1611C77.5895 64.7898 77.5895 64.4185 77.5734 64.0471C80.9799 63.6273 84.3865 63.1914 87.7931 62.7717C87.0666 62.2066 86.3724 62.1097 85.6943 62.1097C80.2373 62.0774 75.2808 60.6567 70.8893 57.2501C68.2416 55.1997 65.4808 53.1816 62.5101 51.6801C60.4274 50.6306 57.9249 50.2916 55.5678 49.9848C53.8725 49.7588 52.8877 50.7437 52.5486 52.6326C52.1289 55.0221 51.4024 57.3954 50.5144 59.6557C48.9806 63.5628 45.8808 65.9845 42.1513 67.9381C42.4903 64.7898 42.9747 61.7707 44.0241 58.9615C47.3338 49.9526 54.9542 45.9002 64.2053 48.4026C69.0004 49.6942 73.6178 51.6478 78.3483 53.1977C80.544 53.9081 82.8205 54.3601 85.0646 54.9252C85.1292 54.6346 85.2099 54.344 85.2745 54.0534C76.6047 49.3068 67.6442 45.3189 57.5051 45.1575C49.6425 45.0445 43.3299 41.9124 38.2281 36.1163C37.2271 34.97 36.5651 33.517 35.7579 32.2092C35.9516 32.0478 36.1292 31.8702 36.3229 31.7087L36.2745 31.5957ZM128.478 36.4231C125.088 36.7783 121.73 37.6339 117.548 38.425C123.474 40.5885 128.559 42.6227 134.291 41.7348C133.613 37.6985 131.982 36.0679 128.478 36.4231Z" fill="black"/>
<path d="M149.677 182.39C144.446 191.382 139.199 200.375 134.032 209.239C142.96 209.852 152.744 193.417 149.677 182.39Z" fill="black"/>
<path d="M103.292 151.714C105.746 143.738 99.0139 130.758 90.7315 126.996C90.5539 130.564 98.2551 145.821 103.292 151.714Z" fill="black"/>
<path d="M0 271.349C18 271.5 2.20765 272.035 10 271.5C35.663 269.737 53.0007 261.307 72.4877 250.667C82.1263 245.404 91.7971 240.092 100.871 233.925C116.531 223.269 129.899 210.224 138.424 192.933C140.846 188.025 142.993 182.939 144.817 177.772C146.077 174.253 145.544 173.849 141.943 173.123C140.539 172.832 139.134 172.477 137.73 172.154C137.794 171.783 137.859 171.428 137.923 171.056C140.135 171.25 142.331 171.557 144.543 171.557C145.302 171.557 146.625 170.846 146.706 170.313C147.077 168.118 147.174 165.857 147.094 163.629C147.077 163.113 145.963 162.322 145.253 162.193C143.671 161.886 142.008 161.999 140.393 161.789C139.506 161.676 138.682 161.208 137.826 160.917L137.923 159.803C141.055 159.593 144.188 159.367 147.82 159.109C147.626 156.138 147.433 153.168 147.207 149.777C143.187 150.132 139.489 150.455 135.792 150.762C135.695 150.245 135.598 149.729 135.502 149.212C139.166 148.211 142.848 147.21 146.851 146.112C145.996 143.594 145.076 140.849 143.994 137.604C140.991 138.653 138.198 139.767 135.308 140.591C134.355 140.865 133.193 140.381 132.111 140.252C132.821 139.541 133.419 138.589 134.275 138.137C136.438 137.023 138.795 136.248 140.91 135.053C141.54 134.698 142.121 133.228 141.895 132.583C141.265 130.887 140.329 129.225 139.183 127.852C138.682 127.255 137.116 126.884 136.406 127.206C133.919 128.32 131.611 129.854 129.157 131.065C128.511 131.388 127.607 131.146 126.816 131.178C127.09 130.355 127.106 129.192 127.671 128.756C129.592 127.271 131.837 126.173 133.709 124.623C134.323 124.123 134.307 122.718 134.355 121.717C134.371 121.314 133.839 120.878 133.532 120.474C129.964 115.889 129.108 115.84 125.104 119.941C124.249 120.813 123.474 121.798 122.521 122.524C122.004 122.928 121.149 122.912 120.454 123.073C120.374 122.266 119.938 121.168 120.293 120.684C121.504 119.069 122.925 117.568 124.426 116.212C126.234 114.565 126.105 113.08 124.313 111.659C117.952 106.557 118.775 106.944 114.739 112.967C114.126 113.887 113.69 114.92 113.06 116.099C112.124 115.76 111.236 115.437 109.912 114.969C111.365 112.466 112.511 110.222 113.916 108.171C115.046 106.509 114.868 105.572 113.092 104.555C108.426 101.907 107.732 102.02 105.052 106.622C104.342 107.832 103.761 109.124 102.63 111.352C102.13 109.802 101.646 108.963 101.662 108.139C101.694 107.397 102.275 106.654 102.63 105.927C105.214 100.454 105.23 100.39 99.4821 98.8397C98.5941 98.5975 97.0442 99.0173 96.5114 99.6954C95.1553 101.423 94.2188 103.473 92.4429 105.459C92.346 104.523 92.0393 103.57 92.1846 102.666C92.346 101.681 92.7981 100.713 93.3147 99.8568C94.8808 97.3059 93.9121 95.8529 91.5549 94.4644C89.1009 93.0275 87.4379 93.302 86.1625 95.869C85.6297 96.9346 84.9516 97.9194 83.6116 98.8074C83.66 97.8226 83.5147 96.8054 83.773 95.8852C85.1938 90.7349 84.1121 89.2334 78.4291 89.185C78.1869 83.8894 74.522 81.3385 70.2758 78.8684C64.2376 75.381 60.5081 69.7787 58.1348 63.2723C57.6182 61.8354 57.2307 60.3178 56.4396 59.0423C55.9068 58.2028 54.7444 57.1857 53.921 57.2341C53.1137 57.2825 51.8383 58.4934 51.7253 59.3329C51.031 64.241 49.5296 69.359 50.3207 74.0571C52.7263 88.2001 58.8291 100.438 71.1315 108.914C79.8337 114.904 88.7618 120.716 96.7213 127.61C115.934 144.256 118.646 170.814 104.051 191.786C93.6861 206.672 79.7045 217.069 63.5272 224.738C46.0422 238.704 22.9582 244.21 0 243.5" fill="black"/>
</svg>
