<svg width="217" height="327" viewBox="0 0 217 327" fill="none" xmlns="http://www.w3.org/2000/svg">
<path d="M124 327C107.556 314.206 94.9884 297.898 84.5533 279.854C75.4765 264.156 68.7328 247.446 65.8564 229.368C60.0715 192.977 64.7537 158.172 81.517 125.275C92.9429 102.859 107.181 82.7898 126.438 66.8221C141.123 54.6523 157.024 44.5079 174.826 37.8237C187.322 33.1313 199.979 29.1141 213.418 28.5064C214.185 28.4727 216 28.5007 216 28.0007C216 27.0007 216.121 26.0655 216 19.5007C216 18.5007 216 18.5007 216 17.5007C216 16.5007 216 16.0007 216 15.5007C216 14.4999 216 14.4999 216 13.5001C216 13.0001 216 14 216 13C210.455 13.4389 199.515 14.0748 193.97 14.5811C175.801 16.2522 158.798 22.2443 141.938 29.0466C132.67 32.7937 123.785 37.1486 115.363 42.5668C90.6897 58.4501 70.1391 78.6713 53.0722 103.011C38.5142 123.772 28.7981 146.559 23.6525 171.338C20.025 188.791 20.5523 206.632 22.3421 224.355C24.1799 242.399 29.2616 259.666 35.5258 276.495C39.6967 287.72 45.945 297.881 52.8644 307.654C58.3936 315.469 63.4321 320.063 70 327C78.5 327 77 327 88.5 327C102 327 102 327 108 327" fill="black"/>
<path d="M205.38 9.07788C201.353 3.35584 172.492 1.73544 157.918 6.36033C158.717 6.61352 159.229 6.83296 159.74 6.95111C163.016 7.67692 166.436 7.98074 169.536 9.16228C175.433 11.3903 181.361 11.711 187.514 10.9515C192.947 10.2763 198.412 9.93873 203.862 9.43235C204.341 9.38172 204.821 9.21293 205.38 9.09478V9.07788Z" fill="black"/>
<path d="M199.004 0.18277C201.63 1.30444 204.749 3.41126 208.5 5.00018C211.405 6.23057 216 7.50018 216 7.50018V6.50018C216 6.50018 216 1.5 216 0.5C210.498 0.00394571 204.935 -0.0395299 199.004 0.18277Z" fill="black"/>
<path d="M168.05 14.1076C157.279 11.7445 143.84 11.5251 131.775 15.8462C138.455 17.0446 144.431 19.0701 150.36 18.9181C156.369 18.7662 162.313 16.4707 168.29 15.1203C168.21 14.7828 168.13 14.4452 168.05 14.1076Z" fill="black"/>
<path d="M42.1737 318.338C36.8523 305.864 35.4939 292.361 32.1061 279.415C29.6931 270.216 27.2002 261.016 24.7872 251.817C24.164 249.454 23.7645 247.024 23.2051 244.644C22.9814 243.732 22.5819 242.871 21.7509 241.994C18.8106 250.838 17.66 259.886 18.5868 269.085C20.5524 288.462 27.8554 305.223 42.1737 318.338Z" fill="black"/>
<path d="M50.6431 67.2606C53.2958 66.3491 55.9165 65.3364 58.6012 64.5599C65.4088 62.6019 72.2324 60.7283 79.056 58.8548C84.2336 57.4369 89.0436 55.327 93.3423 51.9512C97.0657 49.0311 100.949 46.3473 104.752 43.5453C105.519 42.9715 106.222 42.3132 106.798 41.2329C96.3466 42.4482 86.0074 44.1024 76.2594 48.2715C66.3517 52.5082 58.5053 59.8338 50.659 67.2437L50.6431 67.2606Z" fill="black"/>
<path d="M94.2534 33.9579C109.978 32.5907 126.246 31.6117 141.187 24.1173C142.258 23.5772 143.313 22.9864 145.023 22.0749C125.719 18.5303 108.763 21.9399 94.2534 33.9579Z" fill="black"/>
<path d="M37.2836 116.058C28.2868 123.603 20.3126 132.228 13.8406 142.204C4.09265 157.21 -1.70818 180.418 0.449153 196.048C0.752778 195.188 1.10434 194.344 1.32806 193.466C5.03548 179.237 12.0029 166.814 20.9838 155.454C22.0385 154.138 22.9494 152.618 23.6045 151.066C28.3986 139.621 33.0968 128.144 37.843 116.683C37.6512 116.48 37.4754 116.278 37.2836 116.075V116.058Z" fill="black"/>
<path d="M14.1123 121.611C17.7558 118.252 20.808 114.995 24.3077 112.311C31.5628 106.724 39.6168 102.589 48.0863 99.2465C49.189 98.8076 50.2916 98.0312 51.0427 97.1028C57.259 89.4228 63.3954 81.6752 69.5478 73.9277C69.8515 73.5395 69.9793 72.9994 69.9793 72.2061C58.5215 76.2571 47.7987 81.8441 38.0507 89.1359C27.1042 97.3054 19.8013 108.564 14.1283 121.594L14.1123 121.611Z" fill="black"/>
<path d="M10.2608 259.902C10.5484 254.838 10.3727 249.893 11.2036 245.133C12.4341 238.026 13.2811 230.752 16.7967 224.219C17.4839 222.937 17.1323 221.012 17.1163 219.392C17.0684 210.665 16.9086 201.956 16.9246 193.229C16.9246 190.478 17.3241 187.743 17.1003 184.874C11.1077 194.613 6.84103 204.994 4.73164 216.286C1.90313 231.393 3.66095 245.909 10.2928 259.919L10.2608 259.902Z" fill="black"/>
<path d="M60.5 327C56.6168 321.345 54.5424 317.781 50.6592 312.126C49.6684 310.675 48.7576 309.122 47.7828 307.653C47.4152 307.079 46.9518 306.59 46.2646 306.202C47.2075 312.869 49.1411 319.249 52.2413 325.241C52.3502 325.452 53.1737 327 53.1737 327H60.5Z" fill="black"/>
</svg>
